<mxfile host="www.draw.io" modified="2019-10-17T15:44:21.643Z" agent="Mozilla/5.0 (Windows NT 10.0; Win64; x64) AppleWebKit/537.36 (KHTML, like Gecko) Chrome/77.0.3865.120 Safari/537.36" etag="s_3cMg548UiKPqPyAyjP" version="12.1.3" type="github" pages="1">
  <diagram id="HCIpOmMEcwpDw9avh5kR" name="Page-1">
    <mxGraphModel dx="2742" dy="600" grid="1" gridSize="10" guides="1" tooltips="1" connect="1" arrows="1" fold="1" page="1" pageScale="1" pageWidth="827" pageHeight="1169" math="0" shadow="0">
      <root>
        <mxCell id="0"/>
        <mxCell id="1" parent="0"/>
        <mxCell id="mupbqJlQsrp30I-1V4xX-64" value="" style="shape=ext;double=1;rounded=0;whiteSpace=wrap;html=1;fillColor=none;" parent="1" vertex="1">
          <mxGeometry x="-700" y="40" width="510" height="70" as="geometry"/>
        </mxCell>
        <mxCell id="mupbqJlQsrp30I-1V4xX-63" value="" style="shape=ext;double=1;rounded=0;whiteSpace=wrap;html=1;fillColor=none;" parent="1" vertex="1">
          <mxGeometry x="-700" y="110" width="510" height="240" as="geometry"/>
        </mxCell>
        <mxCell id="mupbqJlQsrp30I-1V4xX-1" value="" style="rounded=0;whiteSpace=wrap;html=1;" parent="1" vertex="1">
          <mxGeometry x="-840" width="650" height="40" as="geometry"/>
        </mxCell>
        <mxCell id="mupbqJlQsrp30I-1V4xX-7" value="" style="endArrow=classic;html=1;" parent="1" edge="1">
          <mxGeometry width="50" height="50" relative="1" as="geometry">
            <mxPoint x="-700" y="280" as="sourcePoint"/>
            <mxPoint x="-700" y="280" as="targetPoint"/>
          </mxGeometry>
        </mxCell>
        <mxCell id="mupbqJlQsrp30I-1V4xX-14" value="" style="rounded=0;whiteSpace=wrap;html=1;fillColor=none;" parent="1" vertex="1">
          <mxGeometry x="-840" y="70" width="140" height="70" as="geometry"/>
        </mxCell>
        <mxCell id="mupbqJlQsrp30I-1V4xX-16" value="" style="endArrow=none;html=1;fillColor=#dae8fc;strokeColor=#6c8ebf;" parent="1" edge="1">
          <mxGeometry width="50" height="50" relative="1" as="geometry">
            <mxPoint x="-840" y="90" as="sourcePoint"/>
            <mxPoint x="-701" y="90" as="targetPoint"/>
          </mxGeometry>
        </mxCell>
        <mxCell id="mupbqJlQsrp30I-1V4xX-18" value="&amp;nbsp; &amp;nbsp; &amp;nbsp; &amp;nbsp;Matemática" style="text;html=1;resizable=0;points=[];autosize=1;align=left;verticalAlign=top;spacingTop=-4;fontSize=17;" parent="1" vertex="1">
          <mxGeometry x="-835" y="68" width="100" height="20" as="geometry"/>
        </mxCell>
        <mxCell id="mupbqJlQsrp30I-1V4xX-19" value="&lt;font style=&quot;font-size: 17px&quot;&gt;Trigonometria&lt;/font&gt;" style="text;html=1;resizable=0;points=[];autosize=1;align=left;verticalAlign=top;spacingTop=-4;" parent="1" vertex="1">
          <mxGeometry x="-825" y="90" width="120" height="20" as="geometry"/>
        </mxCell>
        <mxCell id="mupbqJlQsrp30I-1V4xX-20" value="&lt;font style=&quot;font-size: 17px&quot;&gt;Álgebra&lt;/font&gt;" style="text;html=1;resizable=0;points=[];autosize=1;align=left;verticalAlign=top;spacingTop=-4;" parent="1" vertex="1">
          <mxGeometry x="-824.5" y="115" width="70" height="20" as="geometry"/>
        </mxCell>
        <mxCell id="mupbqJlQsrp30I-1V4xX-21" value="" style="rounded=0;whiteSpace=wrap;html=1;fillColor=none;" parent="1" vertex="1">
          <mxGeometry x="-840" y="140" width="140" height="210" as="geometry"/>
        </mxCell>
        <mxCell id="mupbqJlQsrp30I-1V4xX-22" value="" style="endArrow=none;html=1;entryX=0.995;entryY=0.333;entryDx=0;entryDy=0;entryPerimeter=0;fillColor=#dae8fc;strokeColor=#6c8ebf;" parent="1" edge="1">
          <mxGeometry width="50" height="50" relative="1" as="geometry">
            <mxPoint x="-840" y="166.5" as="sourcePoint"/>
            <mxPoint x="-700.6" y="166.48000000000002" as="targetPoint"/>
          </mxGeometry>
        </mxCell>
        <mxCell id="mupbqJlQsrp30I-1V4xX-31" value="" style="triangle;whiteSpace=wrap;html=1;direction=south;fillColor=#000000;" parent="1" vertex="1">
          <mxGeometry x="-820" y="78" width="7" height="4" as="geometry"/>
        </mxCell>
        <mxCell id="mupbqJlQsrp30I-1V4xX-32" value="" style="triangle;whiteSpace=wrap;html=1;direction=south;fillColor=#000000;" parent="1" vertex="1">
          <mxGeometry x="-820" y="152" width="7" height="4" as="geometry"/>
        </mxCell>
        <mxCell id="mupbqJlQsrp30I-1V4xX-35" value="Física" style="text;html=1;resizable=0;points=[];autosize=1;align=left;verticalAlign=top;spacingTop=-4;fontSize=17;" parent="1" vertex="1">
          <mxGeometry x="-795" y="142" width="50" height="20" as="geometry"/>
        </mxCell>
        <mxCell id="mupbqJlQsrp30I-1V4xX-36" value="&lt;font style=&quot;font-size: 17px&quot;&gt;Cinemática&lt;/font&gt;" style="text;html=1;resizable=0;points=[];autosize=1;align=left;verticalAlign=top;spacingTop=-4;" parent="1" vertex="1">
          <mxGeometry x="-825" y="167" width="100" height="20" as="geometry"/>
        </mxCell>
        <mxCell id="mupbqJlQsrp30I-1V4xX-39" value="&lt;font style=&quot;font-size: 17px&quot;&gt;Óptica&lt;/font&gt;" style="text;html=1;resizable=0;points=[];autosize=1;align=left;verticalAlign=top;spacingTop=-4;" parent="1" vertex="1">
          <mxGeometry x="-824.5" y="240" width="60" height="20" as="geometry"/>
        </mxCell>
        <mxCell id="mupbqJlQsrp30I-1V4xX-40" value="Eletrostática" style="text;html=1;resizable=0;points=[];autosize=1;align=left;verticalAlign=top;spacingTop=-4;fontSize=17;" parent="1" vertex="1">
          <mxGeometry x="-825" y="215" width="80" height="20" as="geometry"/>
        </mxCell>
        <mxCell id="mupbqJlQsrp30I-1V4xX-41" value="&lt;font style=&quot;font-size: 17px&quot;&gt;Eletrodinâmica&lt;/font&gt;" style="text;html=1;resizable=0;points=[];autosize=1;align=left;verticalAlign=top;spacingTop=-4;" parent="1" vertex="1">
          <mxGeometry x="-824.5" y="190" width="130" height="20" as="geometry"/>
        </mxCell>
        <mxCell id="mupbqJlQsrp30I-1V4xX-43" value="&lt;font style=&quot;font-size: 15px&quot;&gt;Calculadora de equação do segundo grau&lt;/font&gt;" style="text;html=1;resizable=0;points=[];autosize=1;align=left;verticalAlign=top;spacingTop=-4;" parent="1" vertex="1">
          <mxGeometry x="-632.5" y="40" width="290" height="20" as="geometry"/>
        </mxCell>
        <mxCell id="mupbqJlQsrp30I-1V4xX-46" value="" style="shape=ext;double=1;rounded=0;whiteSpace=wrap;html=1;fillColor=none;" parent="1" vertex="1">
          <mxGeometry x="-580" y="60" width="15" height="20" as="geometry"/>
        </mxCell>
        <mxCell id="mupbqJlQsrp30I-1V4xX-47" value="" style="shape=ext;double=1;rounded=0;whiteSpace=wrap;html=1;fillColor=none;" parent="1" vertex="1">
          <mxGeometry x="-525" y="60" width="15" height="20" as="geometry"/>
        </mxCell>
        <mxCell id="mupbqJlQsrp30I-1V4xX-48" value="" style="shape=ext;double=1;rounded=0;whiteSpace=wrap;html=1;fillColor=none;" parent="1" vertex="1">
          <mxGeometry x="-470" y="60" width="15" height="20" as="geometry"/>
        </mxCell>
        <mxCell id="mupbqJlQsrp30I-1V4xX-57" value="&lt;font style=&quot;font-size: 17px&quot;&gt;&amp;nbsp;Passo 1:&lt;/font&gt;" style="text;html=1;resizable=0;points=[];autosize=1;align=left;verticalAlign=top;spacingTop=-4;" parent="1" vertex="1">
          <mxGeometry x="-694.5" y="120" width="90" height="20" as="geometry"/>
        </mxCell>
        <mxCell id="mupbqJlQsrp30I-1V4xX-58" value="&lt;font style=&quot;font-size: 17px&quot;&gt;&amp;nbsp;Passo 2:&lt;/font&gt;" style="text;html=1;resizable=0;points=[];autosize=1;align=left;verticalAlign=top;spacingTop=-4;" parent="1" vertex="1">
          <mxGeometry x="-694.5" y="152" width="90" height="20" as="geometry"/>
        </mxCell>
        <mxCell id="mupbqJlQsrp30I-1V4xX-59" value="&lt;font style=&quot;font-size: 17px&quot;&gt;Resultado(s):&lt;/font&gt;" style="text;html=1;resizable=0;points=[];autosize=1;align=left;verticalAlign=top;spacingTop=-4;" parent="1" vertex="1">
          <mxGeometry x="-692.5" y="270" width="120" height="20" as="geometry"/>
        </mxCell>
        <mxCell id="mupbqJlQsrp30I-1V4xX-60" value="&lt;span style=&quot;text-align: center ; white-space: normal&quot;&gt;&lt;font style=&quot;font-size: 20px&quot;&gt;Nome&amp;nbsp;&lt;/font&gt;&lt;/span&gt;" style="text;html=1;resizable=0;points=[];autosize=1;align=left;verticalAlign=top;spacingTop=-4;" parent="1" vertex="1">
          <mxGeometry x="-834.5714285714286" y="5" width="70" height="20" as="geometry"/>
        </mxCell>
        <mxCell id="mupbqJlQsrp30I-1V4xX-61" value="&lt;font style=&quot;font-size: 17px&quot;&gt;Calculadoras:&lt;/font&gt;" style="rounded=0;whiteSpace=wrap;html=1;fillColor=none;" parent="1" vertex="1">
          <mxGeometry x="-840" y="40" width="140" height="30" as="geometry"/>
        </mxCell>
        <mxCell id="mupbqJlQsrp30I-1V4xX-65" value="A =&amp;nbsp; &amp;nbsp; &amp;nbsp; &amp;nbsp; &amp;nbsp; &amp;nbsp; B =&amp;nbsp; &amp;nbsp; &amp;nbsp; &amp;nbsp; &amp;nbsp; C =&amp;nbsp;" style="text;html=1;resizable=0;points=[];autosize=1;align=left;verticalAlign=top;spacingTop=-4;" parent="1" vertex="1">
          <mxGeometry x="-610" y="60" width="150" height="20" as="geometry"/>
        </mxCell>
        <mxCell id="mupbqJlQsrp30I-1V4xX-66" value="Fórmulas" style="text;html=1;resizable=0;points=[];autosize=1;align=left;verticalAlign=top;spacingTop=-4;fontSize=15;" parent="1" vertex="1">
          <mxGeometry x="-310" y="5" width="70" height="20" as="geometry"/>
        </mxCell>
        <mxCell id="mupbqJlQsrp30I-1V4xX-67" value="" style="html=1;shadow=0;dashed=0;align=center;verticalAlign=middle;shape=mxgraph.arrows2.arrow;dy=0.67;dx=20;notch=0;fillColor=#000000;" parent="1" vertex="1">
          <mxGeometry x="-330" y="10" width="10" height="10" as="geometry"/>
        </mxCell>
        <mxCell id="mupbqJlQsrp30I-1V4xX-68" value="" style="html=1;shadow=0;dashed=0;align=center;verticalAlign=middle;shape=mxgraph.arrows2.arrow;dy=0.67;dx=20;notch=0;fillColor=#000000;" parent="1" vertex="1">
          <mxGeometry x="-649.5" y="10" width="10" height="10" as="geometry"/>
        </mxCell>
        <mxCell id="mupbqJlQsrp30I-1V4xX-69" value="Propriedades Aritméticas" style="text;html=1;resizable=0;points=[];autosize=1;align=left;verticalAlign=top;spacingTop=-4;fontSize=15;" parent="1" vertex="1">
          <mxGeometry x="-630" y="5" width="150" height="20" as="geometry"/>
        </mxCell>
        <mxCell id="nNie_zolONJPUstKvjSL-2" value="..." style="text;html=1;resizable=0;points=[];autosize=1;align=left;verticalAlign=top;spacingTop=-4;fontSize=28;" parent="1" vertex="1">
          <mxGeometry x="-821.5" y="270" width="30" height="20" as="geometry"/>
        </mxCell>
      </root>
    </mxGraphModel>
  </diagram>
</mxfile>
